<svg width="193" height="193" viewBox="0 0 193 193" fill="none" xmlns="http://www.w3.org/2000/svg">
    <g clip-path="url(#clip0_480_908)">
        <rect width="193" height="193" rx="96.5" fill="url(#paint0_linear_480_908)" />
        <path
            d="M116.445 111.94V119.66C116.445 129.953 131.242 134.457 131.242 134.457C131.242 134.457 114.193 147.323 96.5017 147.323C78.8101 147.323 61.7617 134.457 61.7617 134.457C61.7617 134.457 76.6748 129.953 76.5584 119.66C76.4419 109.367 76.5198 103.319 76.4419 85.6844C67.2217 73.7332 67.8136 65.7122 72.8554 60.0714C89.7467 41.1735 135.745 47.6068 135.745 47.6068C135.745 47.6068 140.037 93.9223 130.277 107.437C126.095 113.227 116.445 111.94 116.445 111.94Z"
            fill="url(#paint1_linear_480_908)" />
        <path style="mix-blend-mode: multiply" opacity="0.6"
            d="M116.444 111.94C102.291 110.332 93.9277 104.22 93.9277 104.22C99.2079 112.032 107.255 117.55 116.444 119.66V111.94Z"
            fill="url(#paint2_linear_480_908)" />
        <path
            d="M164.051 153.955C170.175 166.408 173.701 195.128 173.701 195.128H19.3008C19.3008 195.128 22.8275 166.404 28.9508 153.955C35.074 141.505 70.8318 129.958 70.8318 129.958C77.7238 144.106 115.549 144.106 122.151 129.953C122.151 129.953 157.926 141.502 164.051 153.955Z"
            fill="url(#paint3_linear_480_908)" />
        <path
            d="M93.9277 178.847C93.9277 178.338 94.0787 177.84 94.3614 177.417C94.6442 176.994 95.0461 176.664 95.5163 176.469C95.9865 176.274 96.5039 176.224 97.0031 176.323C97.5023 176.422 97.9608 176.667 98.3207 177.027C98.6806 177.387 98.9257 177.845 99.0249 178.345C99.1242 178.844 99.0733 179.361 98.8785 179.831C98.6837 180.302 98.3539 180.704 97.9307 180.986C97.5075 181.269 97.01 181.42 96.5011 181.42C95.8186 181.42 95.164 181.149 94.6814 180.666C94.1989 180.184 93.9277 179.529 93.9277 178.847ZM93.9277 165.98C93.9277 165.471 94.0787 164.974 94.3614 164.55C94.6442 164.127 95.0461 163.797 95.5163 163.603C95.9865 163.408 96.5039 163.357 97.0031 163.456C97.5023 163.555 97.9608 163.801 98.3207 164.16C98.6806 164.52 98.9257 164.979 99.0249 165.478C99.1242 165.977 99.0733 166.495 98.8785 166.965C98.6837 167.435 98.3539 167.837 97.9307 168.12C97.5075 168.402 97.01 168.553 96.5011 168.553C95.8186 168.553 95.164 168.282 94.6814 167.8C94.1989 167.317 93.9277 166.663 93.9277 165.98ZM93.9277 153.113C93.9277 152.604 94.0787 152.107 94.3614 151.684C94.6442 151.261 95.0461 150.931 95.5163 150.736C95.9865 150.541 96.5039 150.49 97.0031 150.589C97.5023 150.689 97.9608 150.934 98.3207 151.294C98.6806 151.654 98.9257 152.112 99.0249 152.611C99.1242 153.111 99.0733 153.628 98.8785 154.098C98.6837 154.568 98.3539 154.97 97.9307 155.253C97.5075 155.536 97.01 155.687 96.5011 155.687C95.8186 155.687 95.164 155.416 94.6814 154.933C94.1989 154.45 93.9277 153.796 93.9277 153.113Z"
            fill="white" />
        <path
            d="M84.3772 66.3978C82.3314 64.6408 79.8456 63.4577 76.3317 65.2835C68.0012 69.6086 74.3059 86.2066 81.7042 86.2066C83.6342 86.2066 84.594 92.2681 76.001 96.5C76.001 89.745 65.7077 73.0183 64.807 57.7893C54.4494 53.9325 57.0227 38.5009 64.1335 38.5009C62.9986 24.3553 85.651 17.0483 94.4222 25.1665C103.343 14.475 125.859 19.9433 127.219 29.2189C142.702 20.954 152.879 44.7116 138.382 53.9345C132.416 57.7301 118.461 59.1744 98.3163 59.1744C95.2753 59.1744 93.5718 59.9297 94.4222 63.69C96.0685 70.9764 92.2465 75.5659 84.3772 66.3978Z"
            fill="url(#paint4_linear_480_908)" />
    </g>
    <defs>
        <linearGradient id="paint0_linear_480_908" x1="96.5" y1="193" x2="96.5" y2="0"
            gradientUnits="userSpaceOnUse">
            <stop stop-color="#FFC9B3" />
            <stop offset="1" stop-color="#FFD2C2" />
        </linearGradient>
        <linearGradient id="paint1_linear_480_908" x1="99.2233" y1="46.5513" x2="99.2233"
            y2="147.323" gradientUnits="userSpaceOnUse">
            <stop stop-color="#E6864E" />
            <stop offset="1" stop-color="#EB965E" />
        </linearGradient>
        <linearGradient id="paint2_linear_480_908" x1="112.189" y1="107.123" x2="108.245"
            y2="122.056" gradientUnits="userSpaceOnUse">
            <stop stop-color="#E07A3F" />
            <stop offset="1" stop-color="#EB9154" />
        </linearGradient>
        <linearGradient id="paint3_linear_480_908" x1="96.5008" y1="129.953" x2="96.5008"
            y2="195.128" gradientUnits="userSpaceOnUse">
            <stop stop-color="#1D0024" />
            <stop offset="1" stop-color="#100014" />
        </linearGradient>
        <linearGradient id="paint4_linear_480_908" x1="101.637" y1="19.2983" x2="101.637" y2="96.5"
            gradientUnits="userSpaceOnUse">
            <stop stop-color="#1D0024" />
            <stop offset="1" stop-color="#100014" />
        </linearGradient>
        <clipPath id="clip0_480_908">
            <rect width="193" height="193" rx="96.5" fill="white" />
        </clipPath>
    </defs>
</svg>