<svg width="413" height="191" viewBox="0 0 413 191" fill="none" xmlns="http://www.w3.org/2000/svg">
<path d="M250.598 93.8532L250.601 93.8465C254.552 85.4603 260.136 78.1342 267.344 71.8722L267.348 71.8688C274.634 65.6044 283.386 60.6742 293.586 57.0679L293.588 57.0672C303.884 53.4536 315.406 51.6551 328.142 51.6551C340.877 51.6551 352.362 53.4535 362.585 57.0679C372.859 60.674 381.613 65.6048 388.827 71.872C388.827 71.8721 388.827 71.8721 388.827 71.8722L388.171 72.6271C395.352 78.8009 400.85 86.0161 404.665 94.2727L250.598 93.8532ZM250.598 93.8532C246.72 102.246 244.783 111.242 244.783 120.828C244.783 130.413 246.72 139.409 250.598 147.802L250.601 147.809C254.552 156.195 260.136 163.521 267.344 169.783L267.348 169.786C274.634 176.051 283.386 180.981 293.586 184.587L293.588 184.588C303.884 188.202 315.406 190 328.142 190C340.877 190 352.362 188.202 362.585 184.587M250.598 93.8532L362.252 183.644M388.827 169.783C396.109 163.521 401.695 156.194 405.572 147.805C409.525 139.411 411.5 130.415 411.5 120.828C411.5 111.24 409.525 102.243 405.571 93.8495L388.171 169.028M388.827 169.783C388.826 169.784 388.824 169.785 388.823 169.786L388.171 169.028M388.827 169.783C388.827 169.783 388.827 169.783 388.827 169.783L388.171 169.028M388.827 169.783C381.613 176.05 372.859 180.981 362.585 184.587M388.171 169.028C381.065 175.202 372.425 180.074 362.252 183.644M362.585 184.587L362.252 183.644M362.585 184.587C362.584 184.587 362.584 184.588 362.583 184.588L362.252 183.644M14.7205 36.6338L14.7363 36.6396L14.7523 36.6449C17.5615 37.5761 20.6619 38.0346 24.0434 38.0346C27.4963 38.0346 30.6007 37.577 33.3425 36.6422L33.3501 36.6396L33.3577 36.6369C36.1423 35.637 38.531 34.3188 40.5053 32.6696L40.5142 32.6623L40.5228 32.6547C42.4868 30.9361 43.9953 28.969 45.031 26.7532C46.1416 24.4631 46.6989 22.0475 46.6989 19.5173C46.6989 16.9225 46.1457 14.5052 45.031 12.281C43.9948 9.99012 42.4823 8.01629 40.5053 6.36497C38.5281 4.71345 36.1364 3.43189 33.3504 2.50656C30.605 1.49508 27.4974 1 24.0434 1C20.6569 1 17.5509 1.49713 14.7366 2.50658C12.0211 3.43329 9.66792 4.71585 7.69359 6.36497C5.71671 8.01623 4.16915 9.98796 3.05908 12.2745L3.05577 12.2813L3.05257 12.2882C2.01413 14.5122 1.5 16.9266 1.5 19.5173C1.5 22.0384 2.01598 24.4473 3.04702 26.7344L3.05573 26.7537L3.06525 26.7726C4.17423 28.9781 5.71539 30.9389 7.67613 32.6547L7.68478 32.6623L7.6936 32.6696C9.66315 34.3148 12.0105 35.6329 14.7205 36.6338ZM7.43702 53.9982H6.43702V54.9982V186.657V187.657H7.43702H40.6497H41.6497V186.657V54.9982V53.9982H40.6497H7.43702ZM71.7978 53.9982H70.7978V54.9982V186.657V187.657H71.7978H105.011H106.011V186.657V98.3894C108.641 95.9569 111.545 93.7922 114.724 91.8958L114.731 91.8916L114.738 91.8874C118.05 89.8381 121.469 88.1567 124.996 86.8415L124.996 86.8416L125.006 86.8376C128.619 85.4445 132.266 84.3824 135.948 83.65C139.704 82.9177 143.342 82.5531 146.863 82.5531C153.568 82.5531 159.579 83.5787 164.908 85.6116L164.916 85.6145L164.924 85.6172C170.327 87.5777 174.87 90.4734 178.572 94.2986L178.578 94.3055L178.585 94.3123C182.357 98.0633 185.236 102.728 187.211 108.329L187.214 108.336L187.217 108.344C189.263 113.866 190.296 120.18 190.296 127.299V186.657V187.657H191.296H224.397H225.397V186.657V121.943C225.397 110.461 223.586 100.323 219.936 91.5505C216.371 82.7262 211.392 75.3483 204.99 69.4377C198.598 63.5354 191.032 59.1148 182.306 56.1718C173.589 53.1572 164.128 51.6551 153.932 51.6551C146.14 51.6551 138.167 52.6708 130.015 54.6972L130.013 54.6977C122.36 56.6181 114.359 59.8751 106.011 64.4547V54.9982V53.9982H105.011H71.7978ZM362.367 94.0109L362.375 94.0174L362.382 94.0238C366.39 97.502 369.403 101.549 371.435 106.168L371.44 106.18C373.55 110.809 374.604 115.688 374.604 120.828C374.604 125.967 373.55 130.846 371.44 135.476L371.437 135.482C369.405 140.029 366.389 144.081 362.374 147.638C358.444 151.112 353.584 153.916 347.775 156.037C342.068 158.074 335.529 159.102 328.142 159.102C320.757 159.102 314.18 158.074 308.397 156.038C302.666 153.918 297.805 151.115 293.797 147.638C289.858 144.082 286.84 140.03 284.732 135.479C282.697 130.85 281.679 125.969 281.679 120.828C281.679 115.685 282.697 110.804 284.733 106.174C286.842 101.548 289.86 97.4968 293.796 94.0178L293.797 94.017C297.804 90.467 302.663 87.6642 308.393 85.619L308.4 85.6166C314.181 83.5063 320.757 82.4415 328.142 82.4415C335.527 82.4415 342.064 83.5064 347.767 85.6152L347.774 85.6178L347.782 85.6203C353.585 87.6658 358.44 90.4671 362.367 94.0109Z" fill="#6B10FF" stroke="#6B10FF" stroke-width="2"/>
</svg>
