<svg width="111" height="54" viewBox="0 0 111 54" fill="none" xmlns="http://www.w3.org/2000/svg">
<path d="M96.6787 51.0399C99.4474 50.0689 101.827 48.7341 103.798 47.0233C105.783 45.3175 107.313 43.3145 108.376 41.0178C109.46 38.7173 110 36.2528 110 33.6366C110 31.0205 109.46 28.556 108.376 26.2555C107.313 23.9587 105.783 21.9557 103.798 20.2498C101.826 18.5389 99.4467 17.204 96.6777 16.233C93.9055 15.254 90.8091 14.7733 87.4011 14.7733C83.992 14.7733 80.886 15.2543 78.0951 16.2329L78.093 16.2337C75.3431 17.2051 72.9656 18.5398 70.977 20.248L70.973 20.2514C69.0079 21.9572 67.4797 23.9587 66.3984 26.2519L66.3952 26.2587C65.3316 28.5588 64.8022 31.0221 64.8022 33.6366C64.8022 36.2512 65.3316 38.7145 66.3952 41.0146L66.3984 41.0214C67.4797 43.3145 69.0079 45.316 70.973 47.0219L70.977 47.0253C72.9656 48.7335 75.3431 50.0682 78.093 51.0396L78.0951 51.0403C80.886 52.019 83.992 52.5 87.4011 52.5C90.8095 52.5 93.9063 52.0192 96.6787 51.0399ZM96.6787 51.0399C96.6783 51.0401 96.678 51.0402 96.6776 51.0403L96.3467 50.0967M96.6787 51.0399C96.679 51.0398 96.6794 51.0397 96.6798 51.0396L96.3467 50.0967M96.3467 50.0967C93.6983 51.0322 90.7164 51.5 87.4011 51.5C84.0857 51.5 81.094 51.0322 78.426 50.0967M96.3467 50.0967C99.0147 49.1611 101.28 47.8844 103.144 46.2667C105.027 44.649 106.469 42.7584 107.47 40.5949L78.426 50.0967M78.426 50.0967C75.7777 49.1611 73.5118 47.8844 71.6286 46.2667C69.7649 44.649 68.323 42.7584 67.3029 40.5949C66.3024 38.4314 65.8022 36.112 65.8022 33.6366C65.8022 31.1613 66.3024 28.8419 67.3029 26.6784C68.323 24.5149 69.7649 22.6243 71.6286 21.0066C73.5118 19.3888 75.7777 18.1122 78.426 17.1766C81.094 16.2411 84.0857 15.7733 87.4011 15.7733C90.7164 15.7733 93.6983 16.2411 96.3467 17.1766C99.0147 18.1122 101.28 19.3888 103.144 21.0066C105.027 22.6243 106.469 24.5149 107.47 26.6784L78.426 50.0967ZM4.94954 12.2675L4.96536 12.2734L4.98136 12.2787C5.80378 12.551 6.69661 12.6802 7.64985 12.6802C8.61934 12.6802 9.51624 12.5519 10.3264 12.2759L10.3341 12.2733L10.3417 12.2706C11.1394 11.9844 11.845 11.5994 12.4397 11.1031L12.4485 11.0957L12.4572 11.0882C13.0416 10.5772 13.5015 9.98245 13.8199 9.30375C14.158 8.60538 14.3291 7.86389 14.3291 7.0901C14.3291 6.30648 14.1621 5.56344 13.8199 4.87616C13.5011 4.17716 13.0371 3.57568 12.4397 3.07712C11.8423 2.57854 11.1338 2.2027 10.3342 1.93604C9.5207 1.63835 8.62077 1.5 7.64985 1.5C6.69157 1.5 5.79312 1.64033 4.9657 1.93608C4.1816 2.20407 3.48404 2.58086 2.88942 3.07712C2.29217 3.57557 1.82064 4.17496 1.4831 4.86965L1.47979 4.87646L1.47658 4.88332C1.15548 5.57047 1 6.3107 1 7.0901C1 7.85476 1.15733 8.5895 1.47103 9.28477L1.47975 9.3041L1.48928 9.32304C1.82573 9.9916 2.29084 10.5801 2.87196 11.0882L2.8806 11.0957L2.88942 11.1031C3.47935 11.5954 4.17112 11.9803 4.94954 12.2675ZM3.29476 15.3872H2.29476V16.3872V50.886V51.886H3.29476H12.0049H13.0049V50.886V16.3872V15.3872H12.0049H3.29476ZM20.1737 15.3872H19.1737V16.3872V50.886V51.886H20.1737H28.8839H29.8839V50.886V28.0857C30.4715 27.5699 31.1128 27.1045 31.8089 26.6895L31.8158 26.6854L31.8227 26.6811C32.6514 26.1688 33.5046 25.7499 34.3826 25.4228L34.3827 25.4228L34.393 25.4188C35.3018 25.0687 36.2172 24.8025 37.1396 24.619C38.0816 24.4356 38.988 24.3455 39.8599 24.3455C41.5431 24.3455 43.0284 24.6026 44.3297 25.0985L44.3373 25.1014L44.345 25.1042C45.6647 25.5826 46.7586 26.2827 47.6458 27.1987L47.6525 27.2056L47.6593 27.2124C48.5618 28.109 49.2608 29.233 49.7458 30.6073L49.7484 30.6147L49.7512 30.6221C50.252 31.9727 50.5127 33.5377 50.5127 35.3323V50.886V51.886H51.5127H60.1935H61.1935V50.886V33.929C61.1935 30.845 60.707 28.0898 59.7062 25.6848C58.7343 23.283 57.3697 21.2572 55.6043 19.6284C53.8477 18.0078 51.7726 16.7985 49.3933 15.9963C47.0224 15.1775 44.4598 14.7733 41.7138 14.7733C39.6057 14.7733 37.455 15.0479 35.2637 15.5921L35.2616 15.5927C33.5232 16.0285 31.7303 16.715 29.8839 17.6437V16.3872V15.3872H28.8839H20.1737ZM98.0798 30.0927L98.0798 30.0928L98.0852 30.1047C98.5941 31.2206 98.8484 32.3946 98.8484 33.6366C98.8484 34.8787 98.5941 36.0527 98.0852 37.1686L98.0822 37.1752C97.5951 38.264 96.8699 39.2417 95.8899 40.1092C94.9393 40.9485 93.7495 41.6393 92.2998 42.1685C90.8979 42.6679 89.2699 42.9278 87.4011 42.9278C85.5342 42.9278 83.8959 42.6685 82.4729 42.1684C81.0467 41.6407 79.8554 40.9507 78.8825 40.1088C77.9239 39.243 77.1968 38.2645 76.689 37.1717C76.1991 36.0559 75.9537 34.8806 75.9537 33.6366C75.9537 32.3916 76.1995 31.2154 76.6902 30.0987C77.199 28.9855 77.9262 28.0089 78.882 27.1648L78.8829 27.1641C79.8548 26.3038 81.0445 25.6143 82.4697 25.106L82.4764 25.1035C83.8978 24.5851 85.5346 24.3162 87.4011 24.3162C89.2679 24.3162 90.8932 24.5852 92.2924 25.1021L92.2996 25.1048L92.3068 25.1073C93.7507 25.6158 94.9356 26.3038 95.8831 27.158L95.8902 27.1645L95.8975 27.1708C96.8703 28.0143 97.593 28.9871 98.0798 30.0927Z" fill="white" stroke="white" stroke-width="2"/>
</svg>
