<svg width="1185" height="401" viewBox="0 0 1185 401" fill="none" xmlns="http://www.w3.org/2000/svg">
<path d="M41.2501 22.0001C41.2544 22.564 41.083 23.1154 40.7596 23.5774C40.4361 24.0395 39.9768 24.3893 39.4454 24.5782L28.5416 28.5434L24.5782 39.4454C24.3828 39.9717 24.0311 40.4256 23.5702 40.7461C23.1094 41.0666 22.5614 41.2384 22.0001 41.2384C21.4387 41.2384 20.8908 41.0666 20.4299 40.7461C19.969 40.4256 19.6173 39.9717 19.4219 39.4454L15.4568 28.5313L4.55476 24.5782C4.02847 24.3828 3.57458 24.0311 3.25405 23.5702C2.93352 23.1094 2.76172 22.5614 2.76172 22.0001C2.76172 21.4387 2.93352 20.8908 3.25405 20.4299C3.57458 19.969 4.02847 19.6173 4.55476 19.4219L15.4688 15.4568L19.4219 4.55476C19.6173 4.02847 19.969 3.57458 20.4299 3.25405C20.8908 2.93352 21.4387 2.76172 22.0001 2.76172C22.5614 2.76172 23.1094 2.93352 23.5702 3.25405C24.0311 3.57458 24.3828 4.02847 24.5782 4.55476L28.5434 15.4688L39.4454 19.4219C39.9768 19.6109 40.4361 19.9607 40.7596 20.4227C41.083 20.8848 41.2544 21.4361 41.2501 22.0001Z" fill="#BDFF00"/>
<path d="M191.375 189C191.382 189.948 191.094 190.876 190.55 191.653C190.006 192.43 189.234 193.018 188.34 193.336L170.002 200.005L163.336 218.34C163.007 219.225 162.416 219.988 161.641 220.527C160.866 221.066 159.944 221.355 159 221.355C158.056 221.355 157.134 221.066 156.359 220.527C155.584 219.988 154.993 219.225 154.664 218.34L147.995 199.984L129.66 193.336C128.775 193.007 128.012 192.416 127.473 191.641C126.933 190.866 126.645 189.944 126.645 189C126.645 188.056 126.933 187.134 127.473 186.359C128.012 185.584 128.775 184.993 129.66 184.664L148.016 177.995L154.664 159.66C154.993 158.775 155.584 158.012 156.359 157.473C157.134 156.933 158.056 156.645 159 156.645C159.944 156.645 160.866 156.933 161.641 157.473C162.416 158.012 163.007 158.775 163.336 159.66L170.005 178.016L188.34 184.664C189.234 184.982 190.006 185.57 190.55 186.347C191.094 187.124 191.382 188.051 191.375 189Z" fill="#6B10FF"/>
<path d="M1049.69 44.4996C1049.69 45.179 1049.49 45.8431 1049.1 46.3996C1048.71 46.9562 1048.15 47.3775 1047.51 47.6051L1034.38 52.3813L1029.61 65.5133C1029.37 66.1473 1028.95 66.694 1028.39 67.0801C1027.84 67.4662 1027.18 67.6731 1026.5 67.6731C1025.82 67.6731 1025.16 67.4662 1024.61 67.0801C1024.05 66.694 1023.63 66.1473 1023.39 65.5133L1018.62 52.3668L1005.49 47.6051C1004.85 47.3698 1004.31 46.9461 1003.92 46.391C1003.53 45.8358 1003.33 45.1758 1003.33 44.4996C1003.33 43.8234 1003.53 43.1634 1003.92 42.6083C1004.31 42.0532 1004.85 41.6295 1005.49 41.3942L1018.63 36.618L1023.39 23.486C1023.63 22.852 1024.05 22.3053 1024.61 21.9192C1025.16 21.5331 1025.82 21.3262 1026.5 21.3262C1027.18 21.3262 1027.84 21.5331 1028.39 21.9192C1028.95 22.3053 1029.37 22.852 1029.61 23.486L1034.38 36.6325L1047.51 41.3942C1048.15 41.6218 1048.71 42.0431 1049.1 42.5997C1049.49 43.1562 1049.69 43.8203 1049.69 44.4996Z" fill="#6B10FF"/>
<path d="M1045.75 279C1045.76 279.666 1045.55 280.318 1045.17 280.864C1044.79 281.41 1044.25 281.823 1043.62 282.047L1030.73 286.733L1026.05 299.617C1025.82 300.239 1025.4 300.775 1024.86 301.154C1024.31 301.533 1023.66 301.736 1023 301.736C1022.34 301.736 1021.69 301.533 1021.14 301.154C1020.6 300.775 1020.18 300.239 1019.95 299.617L1015.27 286.719L1002.38 282.047C1001.76 281.816 1001.22 281.4 1000.85 280.856C1000.47 280.311 1000.26 279.663 1000.26 279C1000.26 278.336 1000.47 277.689 1000.85 277.144C1001.22 276.6 1001.76 276.184 1002.38 275.953L1015.28 271.267L1019.95 258.383C1020.18 257.761 1020.6 257.224 1021.14 256.846C1021.69 256.467 1022.34 256.264 1023 256.264C1023.66 256.264 1024.31 256.467 1024.86 256.846C1025.4 257.224 1025.82 257.761 1026.05 258.383L1030.73 271.281L1043.62 275.953C1044.25 276.176 1044.79 276.59 1045.17 277.136C1045.55 277.682 1045.76 278.333 1045.75 279Z" fill="#BDFF00"/>
<path d="M1183 339C1183 339.41 1182.88 339.811 1182.64 340.147C1182.41 340.484 1182.07 340.738 1181.69 340.875L1173.76 343.759L1170.87 351.688C1170.73 352.071 1170.48 352.401 1170.14 352.634C1169.81 352.867 1169.41 352.992 1169 352.992C1168.59 352.992 1168.19 352.867 1167.86 352.634C1167.52 352.401 1167.27 352.071 1167.12 351.688L1164.24 343.75L1156.31 340.875C1155.93 340.733 1155.6 340.477 1155.37 340.142C1155.13 339.807 1155.01 339.409 1155.01 339C1155.01 338.592 1155.13 338.194 1155.37 337.858C1155.6 337.523 1155.93 337.267 1156.31 337.125L1164.25 334.242L1167.12 326.313C1167.27 325.93 1167.52 325.6 1167.86 325.367C1168.19 325.134 1168.59 325.009 1169 325.009C1169.41 325.009 1169.81 325.134 1170.14 325.367C1170.48 325.6 1170.73 325.93 1170.87 326.313L1173.76 334.25L1181.69 337.125C1182.07 337.263 1182.41 337.517 1182.64 337.853C1182.88 338.189 1183 338.59 1183 339Z" fill="#BDFF00"/>
<path d="M85.3753 372C85.381 372.744 85.155 373.47 84.7287 374.08C84.3024 374.689 83.6969 375.15 82.9964 375.399L68.6232 380.626L63.3987 394.996C63.1412 395.69 62.6775 396.288 62.07 396.711C61.4625 397.133 60.7403 397.36 60.0003 397.36C59.2603 397.36 58.538 397.133 57.9305 396.711C57.323 396.288 56.8593 395.69 56.6018 394.996L51.375 380.61L37.0042 375.399C36.3104 375.141 35.7121 374.678 35.2896 374.07C34.8671 373.463 34.6406 372.74 34.6406 372C34.6406 371.26 34.8671 370.538 35.2896 369.931C35.7121 369.323 36.3104 368.859 37.0042 368.602L51.3909 363.375L56.6018 349.004C56.8593 348.31 57.323 347.712 57.9305 347.29C58.538 346.867 59.2603 346.641 60.0003 346.641C60.7403 346.641 61.4625 346.867 62.07 347.29C62.6775 347.712 63.1412 348.31 63.3987 349.004L68.6255 363.391L82.9964 368.602C83.6969 368.851 84.3024 369.312 84.7287 369.921C85.155 370.53 85.381 371.257 85.3753 372Z" fill="#6B10FF"/>
</svg>
